# Blender v2.78 (sub 0) OBJ File: 'chest-closed.blend'
# www.blender.org
o Top_Cube.002_None_Top_Cube.002_None_bottom
v -0.500000 0.500001 0.500000
v -0.500000 0.500001 -0.500001
v 0.500000 0.500001 -0.500001
v 0.500000 0.500000 0.500000
v -0.500000 -0.500000 -0.500000
v -0.500000 -0.500000 0.500000
v 0.500000 -0.500000 0.500000
v 0.500000 -0.500000 -0.500000
vt 0.0000 1.0000
vt 0.0000 0.0000
vt 1.0000 0.0000
vt 1.0000 1.0000
vt 1.0000 0.0000
vt 1.0000 1.0000
vt 0.0000 1.0000
vt 0.0000 0.0000
vt 1.0000 0.0000
vt 1.0000 1.0000
vt 1.0000 1.0000
vt 1.0000 0.0000
vt 0.0000 0.0000
vt 0.0000 1.0000
vt 1.0000 0.0000
vt 1.0000 1.0000
vt 0.0000 1.0000
vt 0.0000 0.0000
vn 0.0000 1.0000 0.0000
vn -0.0000 -1.0000 -0.0000
vn 1.0000 -0.0000 -0.0000
vn -1.0000 0.0000 0.0000
vn 0.0000 0.0000 1.0000
vn -0.0000 -0.0000 -1.0000
g Top_Cube.002_None_Top_Cube.002_None_bottom_Top_Cube.002_None_Top_Cube.002_None_bottom_Top
s off
f 4/1/1 3/2/1 2/3/1 1/4/1
g Top_Cube.002_None_Top_Cube.002_None_bottom_Top_Cube.002_None_Top_Cube.002_None_bottom_Bottom
f 6/5/2 5/6/2 8/7/2 7/8/2
g Top_Cube.002_None_Top_Cube.002_None_bottom_Top_Cube.002_None_Top_Cube.002_None_bottom_Right-Left
f 7/8/3 8/9/3 3/10/3 4/1/3
f 2/11/4 5/12/4 6/13/4 1/14/4
g Top_Cube.002_None_Top_Cube.002_None_bottom_Top_Cube.002_None_Top_Cube.002_None_bottom_Back
f 1/14/5 6/13/5 7/15/5 4/16/5
g Top_Cube.002_None_Top_Cube.002_None_bottom_Top_Cube.002_None_Top_Cube.002_None_bottom_Front
f 3/17/6 8/18/6 5/12/6 2/11/6
