# Blender v2.76 (sub 0) OBJ File: 'chest_close.blend'
# www.blender.org
mtllib chest_close.mtl
o Cube_Cube.001
v -0.500000 -0.500000 0.500000
v -0.500000 0.500000 0.500000
v -0.500000 -0.500000 -0.500000
v -0.500000 0.500000 -0.500000
v 0.500000 -0.500000 0.500000
v 0.500000 0.500000 0.500000
v 0.500000 -0.500000 -0.500000
v 0.500000 0.500000 -0.500000
vt 0.750000 0.500000
vt 0.500000 0.500000
vt 0.500000 -0.000000
vt 0.750000 0.000000
vt 0.250000 0.500000
vt 0.250000 0.000000
vt 0.000000 0.500000
vt -0.000000 0.000000
vt 0.750000 1.000000
vt 0.500000 1.000000
vt 0.250000 1.000000
vt -0.000000 1.000000
vn -1.000000 0.000000 0.000000
vn 0.000000 0.000000 -1.000000
vn 1.000000 0.000000 0.000000
vn 0.000000 0.000000 1.000000
vn 0.000000 -1.000000 0.000000
vn 0.000000 1.000000 0.000000
usemtl None
s off
f 2/1/1 4/2/1 3/3/1 1/4/1
f 4/2/2 8/5/2 7/6/2 3/3/2
f 8/5/3 6/7/3 5/8/3 7/6/3
f 6/9/4 2/10/4 1/2/4 5/1/4
f 1/5/5 3/11/5 7/12/5 5/7/5
f 6/11/6 8/5/6 4/2/6 2/10/6
