# Blender v2.77 (sub 0) OBJ File: 'torch_ceiling.blend'
# www.blender.org
v -0.062469 -0.047331 0.068152
v -0.062469 -0.559515 -0.164388
v -0.062469 0.004344 -0.045667
v -0.062469 -0.507839 -0.278206
v 0.062531 -0.047331 0.068152
v 0.062531 -0.559515 -0.164388
v 0.062531 0.004344 -0.045667
v 0.062531 -0.507839 -0.278206
v 0.353584 0.040000 0.363553
v 0.353584 -0.397500 0.363553
v -0.353522 0.040000 -0.343553
v -0.353522 -0.397500 -0.343553
v 0.353584 0.040000 -0.343553
v -0.353522 0.040000 0.363553
v 0.353584 -0.397500 -0.343553
v -0.353522 -0.397500 0.363553
vt 0.5625 0.5000
vt 0.5625 0.6250
vt 0.4375 0.6250
vt 0.4375 0.5000
vt 0.4375 0.0000
vt 0.5625 0.0000
vt 0.5625 0.1250
vt 0.4375 0.1250
vt 0.5625 0.6250
vt 0.4375 0.6250
vt 0.4375 0.6250
vt 0.4375 0.0000
vt 0.5625 0.6250
vt 0.5625 0.0000
vt 1.0000 0.5625
vt 1.0000 1.0000
vt 0.0000 1.0000
vt 0.0000 0.5625
vt 0.0000 0.5625
vt 1.0000 0.5625
vt 1.0000 1.0000
vt 0.0000 1.0000
vn 0.0000 0.9105 0.4134
vn -0.0000 -0.4134 0.9105
vn -1.0000 0.0000 0.0000
vn 0.7071 0.0000 -0.7071
vn 0.7071 0.0000 0.7071
f 3/1/1 1/2/1 5/3/1 7/4/1
f 8/5/1 4/6/1 2/7/1 6/8/1
f 3/9/2 4/6/2 8/5/2 7/10/2
f 1/11/3 3/9/3 4/6/3 2/12/3
f 5/13/2 1/11/2 2/12/2 6/14/2
f 7/10/3 8/5/3 6/14/3 5/13/3
f 9/15/4 10/16/4 12/17/4 11/18/4
f 13/19/5 14/20/5 16/21/5 15/22/5
