v 0.063 0.063 -0.062
v 0.063 -0.5 -0.062
v 0.063 0.063 0.063
v 0.063 -0.5 0.063
v -0.062 0.063 -0.062
v -0.062 -0.5 -0.062
v -0.062 0.063 0.063
v -0.062 -0.5 0.063
v -0.354 -0.5 0.354
v -0.354 0.5 0.354
v 0.354 -0.5 -0.354
v 0.354 0.5 -0.354
v -0.354 -0.5 -0.354
v 0.354 -0.5 0.354
v -0.354 0.5 -0.354
v 0.354 0.5 0.354
vt 0.563 0.5
vt 0.563 0.625
vt 0.438 0.625
vt 0.438 0.5
vt 0.438 0
vt 0.563 0
vt 0.563 0.125
vt 0.438 0.125
vt 1 0
vt 1 1
vt 0 1
vt 0 0
vn 0 1 0
vn 0 0 -1
vn 1 0 0
vn -0.707 0 -0.707
vn -0.707 0 0.707
g 1
s off
f 3/1/1 1/2/1 5/3/1 7/4/1
f 8/5/1 4/6/1 2/7/1 6/8/1
f 3/2/2 4/6/2 8/5/2 7/3/2
f 1/3/3 3/2/3 4/6/3 2/5/3
f 5/2/2 1/3/2 2/5/2 6/6/2
f 7/3/3 8/5/3 6/6/3 5/2/3
g 2
f 9/9/4 10/10/4 12/11/4 11/12/4
f 13/12/5 14/9/5 16/10/5 15/11/5
