# Blender v3.0.0 OBJ File: 'torch_ceiling.blend'
# www.blender.org
v -0.062469 0.004344 -0.045667
v -0.062469 -0.047331 0.068152
v 0.062531 -0.047331 0.068152
v 0.062531 0.004344 -0.045667
v 0.062531 -0.507839 -0.278206
v -0.062469 -0.507839 -0.278206
v -0.062469 -0.559515 -0.164388
v 0.062531 -0.559515 -0.164388
v 0.353584 0.040000 0.363553
v 0.353584 -0.397500 0.363553
v -0.353522 -0.397500 -0.343553
v -0.353522 0.040000 -0.343553
v 0.353584 0.040000 -0.343553
v -0.353522 0.040000 0.363553
v -0.353522 -0.397500 0.363553
v 0.353584 -0.397500 -0.343553
vt 0.562500 0.500000
vt 0.562500 0.625000
vt 0.437500 0.625000
vt 0.437500 0.500000
vt 0.437500 0.000000
vt 0.562500 0.000000
vt 0.562500 0.125000
vt 0.437500 0.125000
vt 0.562500 0.625000
vt 0.437500 0.625000
vt 0.437500 0.625000
vt 0.437500 0.000000
vt 0.562500 0.625000
vt 0.562500 0.000000
vt 1.000000 0.562500
vt 1.000000 1.000000
vt 0.000000 1.000000
vt 0.000000 0.562500
vt 0.000000 0.562500
vt 1.000000 0.562500
vt 1.000000 1.000000
vt 0.000000 1.000000
vn 0.0000 0.9105 0.4134
vn 0.0000 -0.4134 0.9105
vn -1.0000 -0.0000 0.0000
vn 0.7071 0.0000 -0.7071
vn 0.7071 -0.0000 0.7071
f 1/1/1 2/2/1 3/3/1 4/4/1
f 5/5/1 6/6/1 7/7/1 8/8/1
f 1/9/2 6/6/2 5/5/2 4/10/2
f 2/11/3 1/9/3 6/6/3 7/12/3
f 3/13/2 2/11/2 7/12/2 8/14/2
f 4/10/3 5/5/3 8/14/3 3/13/3
f 9/15/4 10/16/4 11/17/4 12/18/4
f 13/19/5 14/20/5 15/21/5 16/22/5
