# Blender v2.75 (sub 0) OBJ File: 'steel_bottle.blend'
# www.blender.org
mtllib bottle_steel.mtl
o steel_bottle_glass_bottle_glass_bottle_None
v -0.032978 0.117136 -0.080986
v -0.033001 0.220308 -0.081038
v 0.034052 0.220308 -0.081038
v 0.034031 0.117136 -0.080986
v 0.225351 -0.089208 -0.093218
v 0.081419 0.117136 -0.033597
v 0.081419 0.117136 0.033417
v 0.225351 -0.089208 0.093033
v 0.034031 0.117136 0.080800
v 0.093652 -0.089208 0.224734
v 0.093652 -0.089208 -0.224917
v -0.092601 -0.089208 -0.224917
v -0.224300 -0.089208 -0.093218
v -0.080366 0.117136 -0.033597
v -0.224300 -0.089208 0.093033
v -0.080366 0.117136 0.033417
v -0.092601 -0.089208 0.224734
v -0.032983 0.117136 0.080800
v 0.034052 0.220308 0.080854
v 0.081472 0.220308 0.033439
v -0.080420 0.220308 0.033439
v -0.080420 0.220308 -0.033619
v 0.081472 0.220308 -0.033619
v -0.033005 0.220308 0.080854
v -0.224332 -0.428654 -0.093229
v -0.224332 -0.428654 0.093049
v 0.093663 -0.428654 -0.224950
v -0.092612 -0.428654 -0.224950
v 0.225383 -0.428654 0.093049
v 0.225383 -0.428654 -0.093229
v 0.093663 -0.428654 0.224766
v -0.092615 -0.428654 0.224766
v 0.189074 -0.499992 -0.078190
v 0.189074 -0.499992 0.078006
v 0.078624 -0.499992 0.188456
v 0.078624 -0.499992 -0.188640
v -0.077573 -0.499992 -0.188640
v -0.188023 -0.499992 -0.078190
v -0.188023 -0.499992 0.078006
v -0.077573 -0.499992 0.188456
vt 0.750000 0.562500
vt 0.750000 0.687500
vt 0.625000 0.687500
vt 0.625000 0.562500
vt 0.500000 0.375000
vt 0.500000 0.562500
vt 0.375000 0.562500
vt 0.375000 0.375000
vt 0.250000 0.562500
vt 0.250000 0.375000
vt 0.625000 0.375000
vt 0.750000 0.375000
vt 0.875000 0.375000
vt 0.875000 0.562500
vt 1.000000 0.375000
vt 1.000000 0.562500
vt 0.125000 0.375000
vt 0.125000 0.562500
vt 0.000000 0.562500
vt 0.000000 0.375000
vt 0.250000 0.687500
vt 0.375000 0.687500
vt 1.000000 0.687500
vt 0.875000 0.687500
vt 0.500000 0.687500
vt 0.125000 0.687500
vt 0.000000 0.687500
vt 0.875000 0.125000
vt 1.000000 0.125000
vt 0.625000 0.125000
vt 0.750000 0.125000
vt 0.375000 0.125000
vt 0.500000 0.125000
vt 0.250000 0.125000
vt 0.125000 0.125000
vt 0.000000 0.125000
vt 0.500000 -0.000000
vt 0.375000 -0.000000
vt 0.250000 -0.000000
vt 0.625000 -0.000000
vt 0.750000 -0.000000
vt 0.875000 -0.000000
vt 1.000000 0.000000
vt 0.125000 -0.000000
vt 0.000000 0.000000
vt 0.602303 0.167375
vt 0.602303 0.082625
vt 0.542375 0.022697
vt 0.457625 0.022697
vt 0.397698 0.082625
vt 0.397698 0.167375
vt 0.457625 0.227302
vt 0.542375 0.227302
vt 0.783956 0.889065
vt 0.764065 0.908956
vt 0.735935 0.908956
vt 0.716044 0.889065
vt 0.716044 0.860935
vt 0.735935 0.841044
vt 0.764065 0.841044
vt 0.783956 0.860935
vn -0.359400 0.343600 -0.867600
vn -0.297200 0.630100 -0.717400
vn 0.297200 0.630100 -0.717400
vn 0.359400 0.343600 -0.867600
vn 0.882300 0.296600 -0.365500
vn 0.867600 0.343600 -0.359400
vn 0.867600 0.343600 0.359400
vn 0.882300 0.296600 0.365500
vn 0.359400 0.343600 0.867600
vn 0.365500 0.296600 0.882300
vn 0.365500 0.296600 -0.882300
vn -0.365500 0.296600 -0.882300
vn -0.882300 0.296600 -0.365500
vn -0.867600 0.343600 -0.359400
vn -0.882300 0.296600 0.365500
vn -0.867600 0.343600 0.359400
vn -0.365500 0.296600 0.882300
vn -0.359400 0.343600 0.867600
vn 0.297200 0.630100 0.717400
vn 0.717400 0.630100 0.297200
vn -0.717400 0.630100 0.297200
vn -0.717400 0.630100 -0.297200
vn 0.717400 0.630100 -0.297200
vn -0.297200 0.630100 0.717400
vn -0.897900 -0.235500 -0.371900
vn -0.897900 -0.235600 0.371900
vn 0.371900 -0.235500 -0.897900
vn -0.371900 -0.235500 -0.897900
vn 0.897900 -0.235600 0.371900
vn 0.897900 -0.235500 -0.371900
vn 0.371900 -0.235600 0.897900
vn -0.371900 -0.235600 0.897900
vn 0.545900 -0.806800 -0.226100
vn 0.545900 -0.806800 0.226100
vn 0.226100 -0.806800 0.545900
vn 0.226100 -0.806800 -0.545900
vn -0.226100 -0.806800 -0.545900
vn -0.545900 -0.806800 -0.226100
vn -0.545900 -0.806800 0.226100
vn -0.226100 -0.806800 0.545900
usemtl None
s 1
f 1/1/1 2/2/2 3/3/3 4/4/4
f 5/5/5 6/6/6 7/7/7 8/8/8
f 8/8/8 7/7/7 9/9/9 10/10/10
f 11/11/11 4/4/4 6/6/6 5/5/5
f 12/12/12 1/1/1 4/4/4 11/11/11
f 13/13/13 14/14/14 1/1/1 12/12/12
f 15/15/15 16/16/16 14/14/14 13/13/13
f 17/17/17 18/18/18 16/19/16 15/20/15
f 10/10/10 9/9/9 18/18/18 17/17/17
f 19/21/19 9/9/9 7/7/7 20/22/20
f 16/16/16 21/23/21 22/24/22 14/14/14
f 14/14/14 22/24/22 2/2/2 1/1/1
f 6/6/6 23/25/23 20/22/20 7/7/7
f 24/26/24 21/27/21 16/19/16 18/18/18
f 9/9/9 19/21/19 24/26/24 18/18/18
f 4/4/4 3/3/3 23/25/23 6/6/6
f 15/15/15 13/13/13 25/28/25 26/29/26
f 12/12/12 11/11/11 27/30/27 28/31/28
f 5/5/5 8/8/8 29/32/29 30/33/30
f 8/8/8 10/10/10 31/34/31 29/32/29
f 10/10/10 17/17/17 32/35/32 31/34/31
f 17/17/17 15/20/15 26/36/26 32/35/32
f 13/13/13 12/12/12 28/31/28 25/28/25
f 33/37/33 30/33/30 29/32/29 34/38/34
f 34/38/34 29/32/29 31/34/31 35/39/35
f 36/40/36 27/30/27 30/33/30 33/37/33
f 37/41/37 28/31/28 27/30/27 36/40/36
f 38/42/38 25/28/25 28/31/28 37/41/37
f 39/43/39 26/29/26 25/28/25 38/42/38
f 40/44/40 32/35/32 26/36/26 39/45/39
f 35/39/35 31/34/31 32/35/32 40/44/40
f 39/46/39 38/47/38 37/48/37 36/49/36 33/50/33 34/51/34 35/52/35 40/53/40
f 21/54/21 24/55/24 19/56/19 20/57/20 23/58/23 3/59/3 2/60/2 22/61/22
f 27/30/27 11/11/11 5/5/5 30/33/30
