# Blender v2.78 (sub 0) OBJ File: ''
# www.blender.org
mtllib stairs_outer_stair.mtl
o stairs_bottom
v -0.500000 -0.500000 0.500000
v -0.500000 -0.500000 -0.500000
v 0.500000 -0.500000 -0.500000
v 0.500000 -0.500000 0.500000
vt 1.0000 0.0000
vt 1.0000 1.0000
vt 0.0000 1.0000
vt 0.0000 0.0000
vn 0.0000 -1.0000 -0.0000
usemtl None
s 1
f 1/1/1 2/2/1 3/3/1 4/4/1
o stairs_back_left_stairs_left
v 0.500000 0.000000 0.000000
v 0.500000 -0.500000 -0.500000
v 0.500000 0.000000 -0.500000
v 0.500000 0.500000 0.000000
v 0.500000 0.500000 0.500000
v 0.500000 -0.500000 0.500000
vt 0.5000 0.5000
vt 1.0000 0.0000
vt 1.0000 0.5000
vt 0.5000 1.0000
vt 0.0000 1.0000
vt 0.0000 0.0000
vn 1.0000 0.0000 0.0000
usemtl None
s 1
f 5/5/2 6/6/2 7/7/2
f 5/5/2 8/8/2 9/9/2
f 6/6/2 5/5/2 10/10/2
f 5/5/2 9/9/2 10/10/2
o stairs_back_right_stairs_back
v 0.000000 -0.500000 0.500000
v 0.000000 -0.000000 0.500000
v -0.500000 -0.000000 0.500000
v -0.500000 -0.500000 0.500000
v 0.500000 -0.500000 0.500000
v 0.500000 -0.000000 0.500000
v 0.500000 0.500000 0.500000
v 0.000000 0.500000 0.500000
vt 0.5000 0.0000
vt 0.5000 0.5000
vt 0.0000 0.5000
vt 0.0000 0.0000
vt 1.0000 0.0000
vt 1.0000 0.5000
vt 1.0000 1.0000
vt 0.5000 1.0000
vn 0.0000 -0.0000 1.0000
usemtl None
s 1
f 11/11/3 12/12/3 13/13/3 14/14/3
f 15/15/3 16/16/3 12/12/3 11/11/3
f 16/16/3 17/17/3 18/18/3 12/12/3
o stairs_top_stairs_top.001
v 0.000000 0.500000 0.500000
v 0.501689 0.500000 0.500000
v 0.501689 0.500000 0.000000
v 0.000000 0.500000 0.000000
v -0.500000 -0.000000 0.500000
v 0.001689 -0.000000 0.500000
v 0.001689 0.000000 0.000000
v -0.500000 0.000000 0.000000
v 0.500000 0.000000 -0.500000
v -0.500000 0.000000 -0.500000
v -0.500000 0.000000 0.000000
v 0.500000 0.000000 0.000000
vt 0.5000 0.0000
vt 1.0000 0.0000
vt 1.0000 0.5000
vt 0.5000 0.5000
vt 0.0000 0.0000
vt 0.5000 0.0000
vt 0.5000 0.5000
vt 0.0000 0.5000
vt 1.0000 1.0000
vt 0.0000 1.0000
vt 0.0000 0.5000
vt 1.0000 0.5000
vn 0.0000 1.0000 0.0000
usemtl None
s 1
f 19/19/4 20/20/4 21/21/4 22/22/4
usemtl None.004
f 23/23/4 24/24/4 25/25/4 26/26/4
f 27/27/4 28/28/4 29/29/4 30/30/4
o stairs_front_left_stairs_front.000
v -0.500000 -0.500000 -0.500000
v -0.500000 0.000000 -0.500000
v 0.500000 0.000000 -0.500000
v 0.500000 -0.500000 -0.500000
v 0.500000 0.500000 0.000000
v 0.500000 0.000000 0.000000
v 0.000000 0.000000 0.000000
v 0.000000 0.500000 0.000000
vt 1.0000 0.0000
vt 1.0000 0.5000
vt -0.0000 0.5000
vt -0.0000 0.0000
vt 0.5000 0.5000
vt 0.5000 1.0000
vt -0.0000 1.0000
vt -0.0000 0.5000
vn 0.0000 0.0000 -1.0000
usemtl None.001
s 1
f 31/31/5 32/32/5 33/33/5 34/34/5
usemtl None.003
f 37/35/5 38/36/5 35/37/5 36/38/5
o stairs_front_right_stairs_right.001_stairs_front_left_stairs_front.002
v -0.500000 -0.500000 0.500000
v -0.500000 0.000000 0.500000
v -0.500000 0.000000 -0.500000
v -0.500000 -0.500000 -0.500000
v 0.000000 0.000000 0.500000
v 0.000000 0.500000 0.500000
v 0.000000 0.500000 -0.000000
v -0.000000 0.000000 0.000000
vt 1.0000 0.0000
vt 1.0000 0.5021
vt -0.0000 0.5021
vt -0.0000 0.0000
vt 1.0000 0.5021
vt 1.0000 1.0000
vt 0.5000 1.0000
vt 0.5000 0.5021
vn -1.0000 0.0000 0.0000
usemtl None.002
s 1
f 39/39/6 40/40/6 41/41/6 42/42/6
f 43/43/6 44/44/6 45/45/6 46/46/6
