# Blender v2.78 (sub 0) OBJ File: ''
# www.blender.org
mtllib stairs_outer_stair.mtl
o stairs_front_right_stairs_right.001
v 0.000000 0.500000 0.000000
v 0.000000 0.000000 0.000000
v 0.000000 0.500000 0.500000
v 0.000000 0.000000 0.000000
v 0.000000 0.500000 0.500000
v 0.000000 -0.006761 0.500000
v -0.500000 -0.500000 -0.500000
v -0.500000 -0.500000 0.500000
v -0.500000 -0.375000 0.375000
v -0.500000 0.000000 0.000000
v -0.500000 -0.125000 0.125000
v -0.500000 -0.250000 0.250000
v -0.500000 0.000000 -0.500000
v -0.500000 0.000000 0.000000
v -0.500000 -0.500000 -0.500000
v -0.500000 -0.125000 0.125000
v -0.500000 -0.250000 0.250000
v -0.500000 -0.375000 0.375000
v -0.500000 -0.006761 0.500000
v -0.500000 -0.500000 0.500000
v -0.500000 0.000000 0.000000
vt 0.5000 0.5000
vt 1.0000 1.0000
vt 0.5000 1.0000
vt 0.5000 0.5000
vt 1.0000 0.4932
vt 1.0000 1.0000
vt 0.0000 0.0000
vt 1.0000 0.0000
vt 0.8750 0.1250
vt 0.7500 0.2500
vt 0.6250 0.3750
vt 0.5000 0.5000
vt 0.0000 0.5000
vt 0.0000 0.0000
vt 0.5000 0.5000
vt 1.0000 0.0000
vt 1.0000 0.4932
vt 0.5000 0.5000
vt 0.6250 0.3750
vt 0.7500 0.2500
vt 0.8750 0.1250
vn -1.0000 0.0000 0.0000
usemtl None
s 1
f 2/1/1 3/2/1 1/3/1
f 4/4/1 6/5/1 5/6/1
f 7/7/1 8/8/1 9/9/1 12/10/1 11/11/1 10/12/1
f 13/13/1 15/14/1 14/15/1
f 20/16/1 19/17/1 21/18/1 16/19/1 17/20/1 18/21/1
o stairs_top_stairs_top.001
v -0.500000 -0.000000 0.500000
v -0.500000 -0.000000 0.000000
v 0.001689 -0.000000 0.500000
v 0.001689 -0.000000 0.000000
v 0.500000 0.000000 -0.500000
v -0.500000 0.000000 -0.500000
v -0.500000 0.000000 0.000000
v 0.500000 0.000000 0.000000
v 0.500000 0.500000 0.500000
v 0.500000 0.500000 0.000000
v 0.001689 0.500000 0.000000
v 0.001689 0.500000 0.500000
vt 1.0000 1.0000
vt 0.5000 1.0000
vt 0.5000 0.5000
vt 1.0000 0.5000
vt 0.0000 0.0000
vt 1.0000 0.0000
vt 1.0000 0.5000
vt 0.0000 0.5000
vt 0.5000 1.0000
vt 0.0000 1.0000
vt 0.0000 0.5000
vt 0.5000 0.5000
vn 0.0000 1.0000 0.0000
usemtl None
s 1
f 22/22/2 24/23/2 25/24/2 23/25/2
f 26/26/2 27/27/2 28/28/2 29/29/2
f 33/30/2 30/31/2 31/32/2 32/33/2
o stairs_front_left_stairs_front.001
v -0.500000 -0.500000 -0.500000
v -0.500000 0.000000 -0.500000
v 0.500000 0.000000 -0.500000
v 0.500000 -0.500000 -0.500000
v 0.500000 0.500000 0.000000
v 0.500000 0.000000 0.000000
v 0.000000 0.000000 0.000000
v 0.000000 0.500000 0.000000
vt 1.0000 0.0000
vt 1.0000 0.5000
vt 0.0000 0.5000
vt 0.0000 0.0000
vt 0.5000 0.5000
vt 0.5000 1.0000
vt 0.0000 1.0000
vt 0.0000 0.5000
vn 0.0000 0.0000 -1.0000
usemtl None
s 1
f 34/34/3 35/35/3 36/36/3 37/37/3
f 40/38/3 41/39/3 38/40/3 39/41/3
o stairs_back_right_stairs_back
v 0.500000 -0.500000 0.500000
v 0.500000 0.500000 0.500000
v -0.500000 -0.500000 0.500000
v 0.500000 -0.000000 0.500000
v -0.500000 -0.000000 0.500000
v 0.000000 -0.500000 0.500000
v 0.000000 0.500000 0.500000
v 0.000000 -0.000000 0.500000
vt 0.5000 0.0000
vt 0.5000 0.5000
vt 0.0000 0.5000
vt 0.0000 0.0000
vt 1.0000 0.0000
vt 1.0000 0.5000
vt 1.0000 1.0000
vt 0.5000 1.0000
vn 0.0000 -0.0000 1.0000
usemtl None
s 1
f 47/42/4 49/43/4 46/44/4 44/45/4
f 42/46/4 45/47/4 49/43/4 47/42/4
f 45/47/4 43/48/4 48/49/4 49/43/4
o stairs_back_left_stairs_left
v 0.500000 0.000000 0.000000
v 0.500000 -0.500000 -0.500000
v 0.500000 0.000000 -0.500000
v 0.500000 0.500000 0.000000
v 0.500000 0.500000 0.500000
v 0.500000 -0.500000 0.500000
vt 0.5000 0.5000
vt 1.0000 0.0000
vt 1.0000 0.5000
vt 0.5000 1.0000
vt 0.0000 1.0000
vt 0.0000 0.0000
vn 1.0000 0.0000 0.0000
usemtl None
s 1
f 50/50/5 51/51/5 52/52/5
f 50/50/5 53/53/5 54/54/5
f 51/51/5 50/50/5 55/55/5
f 50/50/5 54/54/5 55/55/5
o stairs_bottom
v -0.500000 -0.500000 0.500000
v -0.500000 -0.500000 -0.500000
v 0.500000 -0.500000 -0.500000
v 0.500000 -0.500000 0.500000
vt 1.0000 0.0000
vt 1.0000 1.0000
vt 0.0000 1.0000
vt 0.0000 0.0000
vn 0.0000 -1.0000 -0.0000
usemtl None
s 1
f 56/56/6 57/57/6 58/58/6 59/59/6
