v 0.499 1.499 -0.499
v 0.499 1.499 -0.375
v 0.499 -0.499 -0.375
v 0.499 -0.499 -0.499
v -0.499 1.499 -0.375
v -0.499 -0.499 -0.375
v -0.499 1.499 -0.499
v -0.499 -0.499 -0.499
vt 0.895 1
vt 0.947 1
vt 0.947 0
vt 0.895 0
vt 0.842 1
vt 0.421 1
vt 0.421 0
vt 0.842 0
vt 0.842 1
vt 0.895 1
vt 0.895 0
vt 0.842 0
vt 0.421 1
vt 0 1
vt 0 0
vt 0.421 0
vt 1 0.5
vt 0.947 0.5
vt 0.947 1
vt 1 1
vt 1 0
vt 0.947 0
vt 0.947 0.5
vt 1 0.5
vn 1 0 0
vn 0 0 1
vn -1 0 0
vn 0 0 -1
vn 0 -1 0
vn 0 1 0
s 1
f 1/1/1 2/2/1 3/3/1 4/4/1
f 2/5/2 5/6/2 6/7/2 3/8/2
f 5/9/3 7/10/3 8/11/3 6/12/3
f 7/13/4 1/14/4 4/15/4 8/16/4
f 4/17/5 3/18/5 6/19/5 8/20/5
f 7/21/6 5/22/6 2/23/6 1/24/6
