# Blender v2.79 (sub 0) OBJ File: ''
# www.blender.org
mtllib doors_fencegate_open.mtl
o Cube
v -0.500000 0.500100 0.093750
v -0.500000 0.500100 -0.093750
v -0.500000 -0.500000 -0.093750
v -0.500000 -0.500000 0.093750
v -0.312500 0.500100 -0.093750
v -0.312500 -0.500000 -0.093750
v -0.312500 0.500100 0.093750
v -0.312500 -0.500000 0.093750
v 0.312500 0.500100 0.093750
v 0.312500 0.500100 -0.093750
v 0.312500 -0.500000 -0.093750
v 0.312500 -0.500000 0.093750
v 0.500000 0.500100 -0.093750
v 0.500000 -0.500000 -0.093750
v 0.500000 0.500100 0.093750
v 0.500000 -0.500000 0.093750
v -0.468750 0.312500 -0.093750
v -0.468750 0.187500 -0.093750
v -0.343750 0.312500 -0.093750
v -0.343750 0.187500 -0.093750
v 0.468750 0.187363 -0.312592
v 0.468750 -0.087304 -0.093685
v 0.468750 -0.212433 -0.093769
v 0.468750 0.187348 -0.406081
v 0.343750 -0.087304 -0.093685
v 0.343750 0.187363 -0.312592
v 0.343750 0.187348 -0.406081
v 0.343750 -0.212433 -0.093769
v -0.343750 0.187363 -0.312592
v -0.343750 -0.087304 -0.093685
v -0.343750 -0.212433 -0.093769
v -0.343750 0.187348 -0.406081
v -0.468750 -0.087304 -0.093685
v -0.468750 0.187363 -0.312592
v -0.468750 0.187348 -0.406081
v -0.468750 -0.212433 -0.093769
v -0.343750 0.187500 -0.406250
v -0.468750 0.312500 -0.406250
v -0.468750 0.187500 -0.406250
v -0.343750 0.312500 -0.406250
v 0.468750 0.312500 -0.093750
v 0.468750 0.187500 -0.093750
v 0.343750 0.312500 -0.093750
v 0.343750 0.187500 -0.093750
v 0.343750 0.187500 -0.406250
v 0.468750 0.312500 -0.406250
v 0.468750 0.187500 -0.406250
v 0.343750 0.312500 -0.406250
vt 0.000000 0.750000
vt 0.000000 0.500000
vt 1.000000 0.500000
vt 1.000000 0.750000
vt 1.000000 0.750000
vt 1.000000 1.000000
vt -0.000000 1.000000
vt 0.000000 0.750000
vt 1.000000 -0.000000
vt 1.000000 0.250000
vt 0.000000 0.250000
vt -0.000000 0.000000
vt 0.000000 0.500000
vt 0.000000 0.250000
vt 1.000000 0.250000
vt 1.000000 0.500000
vt 0.000000 0.250000
vt -0.000000 0.000000
vt 0.250000 0.000000
vt 0.250000 0.250000
vt -0.000000 1.000000
vt 0.000000 0.750000
vt 0.250000 0.750000
vt 0.250000 1.000000
vt 0.000000 0.750000
vt 0.000000 0.500000
vt 1.000000 0.500000
vt 1.000000 0.750000
vt 0.000000 0.250000
vt 1.000000 0.250000
vt 1.000000 -0.000000
vt 1.000000 0.250000
vt 0.000000 0.250000
vt -0.000000 0.000000
vt 1.000000 0.750000
vt 1.000000 1.000000
vt -0.000000 1.000000
vt 0.000000 0.750000
vt 0.250000 0.250000
vt 0.250000 0.000000
vt 0.500000 -0.000000
vt 0.500000 0.250000
vt 0.250000 1.000000
vt 0.250000 0.750000
vt 0.500000 0.750000
vt 0.500000 1.000000
vt 0.500000 0.750000
vt 1.000000 0.750000
vt 1.000000 0.875000
vt 0.500000 0.875000
vt 0.500000 0.875000
vt 0.500000 1.000000
vt -0.000000 1.000000
vt 0.000000 0.875000
vt 0.813740 0.249033
vt 0.201557 0.249293
vt 0.120995 0.125498
vt 0.987404 0.125469
vt 0.125000 0.375000
vt 0.812500 0.375000
vt 0.937500 0.500000
vt 0.062500 0.500000
vt 0.000000 0.125000
vt -0.000000 0.000000
vt 1.000000 -0.000000
vt 1.000000 0.125000
vt 0.312500 0.437500
vt 0.312500 0.312500
vt 1.000000 0.312500
vt 1.000000 0.437500
vt 0.813740 0.249033
vt 0.201557 0.249293
vt 0.120995 0.125498
vt 0.987404 0.125469
vt 0.125000 0.375000
vt 0.812500 0.375000
vt 0.937500 0.500000
vt 0.062500 0.500000
vt 0.000000 0.125000
vt -0.000000 0.000000
vt 1.000000 -0.000000
vt 1.000000 0.125000
vt 0.312500 0.437500
vt 0.312500 0.312500
vt 1.000000 0.312500
vt 1.000000 0.437500
vt -0.000000 0.687500
vt 0.000000 0.562500
vt 0.500000 0.562500
vt 0.500000 0.687500
vt 0.000000 0.500000
vt 0.500000 0.500000
vt 0.500000 0.625000
vt 0.000000 0.625000
vt 0.500000 0.500000
vt 1.000000 0.500000
vt 1.000000 0.625000
vt 0.500000 0.625000
vt 0.500000 0.687500
vt 0.500000 0.562500
vt 1.000000 0.562500
vt 1.000000 0.687500
vt 1.000000 0.875000
vt 1.000000 1.000000
vt 0.500000 1.000000
vt 0.500000 0.875000
vt 0.000000 0.750000
vt 0.500000 0.750000
vt 0.500000 0.875000
vt 0.000000 0.875000
vt 0.312500 0.437500
vt 0.312500 0.562500
vt 0.437500 0.562500
vt 0.437500 0.437500
vt 0.312500 0.437500
vt 0.437500 0.437500
vt 0.437500 0.562500
vt 0.312500 0.562500
vn -1.0000 0.0000 0.0000
vn -0.0000 0.0000 -1.0000
vn 1.0000 0.0000 0.0000
vn 0.0000 -0.0000 1.0000
vn 0.0000 -1.0000 0.0000
vn 0.0000 1.0000 0.0000
vn 0.0000 -0.6156 -0.7880
vn 0.0000 0.6233 0.7820
vn 0.0000 1.0000 -0.0002
usemtl None.002
s off
f 1/1/1 2/2/1 3/3/1 4/4/1
f 2/5/2 5/6/2 6/7/2 3/8/2
f 5/9/3 7/10/3 8/11/3 6/12/3
f 7/13/4 1/14/4 4/15/4 8/16/4
f 4/17/5 3/18/5 6/19/5 8/20/5
f 7/21/6 5/22/6 2/23/6 1/24/6
f 9/25/1 10/26/1 11/27/1 12/28/1
f 10/26/2 13/29/2 14/30/2 11/27/2
f 13/31/3 15/32/3 16/33/3 14/34/3
f 15/35/4 9/36/4 12/37/4 16/38/4
f 12/39/5 11/40/5 14/41/5 16/42/5
f 15/43/6 13/44/6 10/45/6 9/46/6
f 40/47/3 19/48/3 20/49/3 37/50/3
f 40/51/6 38/52/6 17/53/6 19/54/6
f 21/55/3 22/56/3 23/57/3 24/58/3
f 25/59/1 26/60/1 27/61/1 28/62/1
f 27/63/7 24/64/7 23/65/7 28/66/7
f 25/67/8 22/68/8 21/69/8 26/70/8
f 29/71/3 30/72/3 31/73/3 32/74/3
f 33/75/1 34/76/1 35/77/1 36/78/1
f 35/79/7 32/80/7 31/81/7 36/82/7
f 33/83/8 30/84/8 29/85/8 34/86/8
f 27/63/9 26/70/9 21/55/9 24/64/9
f 35/79/9 34/86/9 29/71/9 32/80/9
f 20/87/5 18/88/5 39/89/5 37/90/5
f 17/91/1 38/92/1 39/93/1 18/94/1
f 46/95/3 41/96/3 42/97/3 47/98/3
f 45/99/5 47/100/5 42/101/5 44/102/5
f 43/103/6 41/104/6 46/105/6 48/106/6
f 43/107/1 48/108/1 45/109/1 44/110/1
f 48/111/2 46/112/2 47/113/2 45/114/2
f 40/115/2 37/116/2 39/117/2 38/118/2
