# Blender v2.79 (sub 0) OBJ File: ''
# www.blender.org
mtllib door_b2.mtl
o door_b2
v 0.499000 1.499000 -0.499000
v 0.499000 1.499000 -0.375000
v 0.499000 -0.499000 -0.375000
v 0.499000 -0.499000 -0.499000
v -0.499000 1.499000 -0.375000
v -0.499000 -0.499000 -0.375000
v -0.499000 1.499000 -0.499000
v -0.499000 -0.499000 -0.499000
vt 0.842105 1.000000
vt 0.894737 1.000000
vt 0.894737 0.000000
vt 0.842105 0.000000
vt 0.421052 1.000000
vt 0.000001 1.000000
vt 0.000001 0.000000
vt 0.421052 0.000000
vt 0.894737 1.000000
vt 0.947368 1.000000
vt 0.947368 0.000000
vt 0.894737 0.000000
vt 0.842105 1.000000
vt 0.421052 1.000000
vt 0.421052 0.000000
vt 0.842105 0.000000
vt 1.000000 0.500000
vt 0.947368 0.500000
vt 0.947368 1.000000
vt 1.000000 1.000000
vt 1.000000 0.000000
vt 0.947368 0.000000
vt 0.947368 0.500000
vt 1.000000 0.500000
vn 1.0000 0.0000 0.0000
vn 0.0000 -0.0000 1.0000
vn -1.0000 0.0000 0.0000
vn 0.0000 0.0000 -1.0000
vn 0.0000 -1.0000 0.0000
vn 0.0000 1.0000 0.0000
usemtl None.010
s 1
f 1/1/1 2/2/1 3/3/1 4/4/1
f 2/5/2 5/6/2 6/7/2 3/8/2
f 5/9/3 7/10/3 8/11/3 6/12/3
f 7/13/4 1/14/4 4/15/4 8/16/4
f 4/17/5 3/18/5 6/19/5 8/20/5
f 7/21/6 5/22/6 2/23/6 1/24/6
