# Blender v2.80 (sub 64) OBJ File: ''
# www.blender.org
mtllib door_new_a.mtl
o Cube_Cube.001.001
v 0.499000 -0.499000 -0.375000
v -0.499000 -0.499000 -0.375000
v -0.499000 -0.499000 -0.499000
v 0.499000 -0.499000 -0.499000
v 0.499000 1.311687 -0.375000
v 0.311875 1.311687 -0.375000
v 0.311875 1.061937 -0.375000
v 0.499000 1.061937 -0.375000
v 0.499000 0.687312 -0.499000
v -0.499000 0.687312 -0.499000
v -0.311875 0.687312 -0.499000
v -0.062375 0.687312 -0.499000
v 0.062375 0.687312 -0.499000
v 0.311875 0.687312 -0.499000
v -0.311875 1.311687 -0.375000
v -0.499000 1.311687 -0.375000
v -0.499000 1.061937 -0.375000
v -0.311875 1.061937 -0.375000
v -0.311875 0.937062 -0.375000
v -0.499000 0.937062 -0.375000
v -0.499000 0.687312 -0.375000
v -0.311875 0.687312 -0.375000
v 0.062375 1.311687 -0.375000
v -0.062375 1.311687 -0.375000
v -0.062375 1.061937 -0.375000
v 0.062375 1.061937 -0.375000
v 0.499000 1.499000 -0.375000
v -0.499000 1.499000 -0.375000
v 0.062375 0.937062 -0.375000
v -0.062375 0.937062 -0.375000
v -0.062375 0.687312 -0.375000
v 0.062375 0.687312 -0.375000
v 0.311875 0.937062 -0.375000
v 0.499000 0.937062 -0.375000
v 0.311875 0.937062 -0.499000
v 0.499000 0.937062 -0.499000
v -0.062375 0.937062 -0.499000
v 0.062375 0.937062 -0.499000
v -0.499000 1.499000 -0.499000
v -0.499000 1.311687 -0.499000
v -0.499000 1.061937 -0.499000
v -0.499000 0.937062 -0.499000
v -0.311875 0.937062 -0.499000
v 0.311875 1.311687 -0.499000
v 0.499000 1.311687 -0.499000
v 0.499000 1.061937 -0.499000
v 0.311875 1.061937 -0.499000
v -0.062375 1.311687 -0.499000
v 0.062375 1.311687 -0.499000
v 0.062375 1.061937 -0.499000
v -0.062375 1.061937 -0.499000
v 0.499000 1.499000 -0.499000
v -0.311875 1.311687 -0.499000
v -0.311875 1.061937 -0.499000
v 0.499000 0.687312 -0.375000
v 0.311875 0.687312 -0.375000
vt 0.947368 0.500000
vt 0.947368 1.000000
vt 1.000000 1.000000
vt 1.000000 0.500000
vt 0.421053 0.906250
vt 0.500000 0.906250
vt 0.500000 0.781250
vt 0.421053 0.781250
vt 0.421053 0.593750
vt 0.421053 0.000000
vt 0.000000 0.000000
vt 0.000000 0.593750
vt 0.078947 0.593750
vt 0.184211 0.593750
vt 0.236842 0.593750
vt 0.342105 0.593750
vt 0.763158 0.906250
vt 0.842105 0.906250
vt 0.842105 0.781250
vt 0.763158 0.781250
vt 0.763158 0.718750
vt 0.842105 0.718750
vt 0.842105 0.593750
vt 0.763158 0.593750
vt 0.605263 0.906250
vt 0.657895 0.906250
vt 0.657895 0.781250
vt 0.605263 0.781250
vt 0.421053 1.000000
vt 0.842105 1.000000
vt 0.605263 0.718750
vt 0.657895 0.718750
vt 0.657895 0.593750
vt 0.605263 0.593750
vt 0.500000 0.718750
vt 0.421053 0.718750
vt 0.342105 0.718750
vt 0.421053 0.718750
vt 0.184211 0.718750
vt 0.236842 0.718750
vt 0.947368 0.000000
vt 0.894737 0.000000
vt 0.894737 0.593750
vt 0.894737 0.718750
vt 0.894737 0.781250
vt 0.894737 0.906250
vt 0.894737 1.000000
vt 0.947368 1.000000
vt 0.947368 0.906250
vt 0.947368 0.781250
vt 0.947368 0.718750
vt 0.947368 0.593750
vt 0.000000 0.718750
vt 0.078947 0.718750
vt 0.342105 0.906250
vt 0.421053 0.906250
vt 0.421053 0.781250
vt 0.342105 0.781250
vt 0.184211 0.906250
vt 0.236842 0.906250
vt 0.236842 0.781250
vt 0.184211 0.781250
vt 0.000000 1.000000
vt 0.421053 1.000000
vt 0.078947 0.906250
vt 0.000000 0.906250
vt 0.078947 0.781250
vt 0.000000 0.781250
vt 0.894737 0.593750
vt 0.894737 0.000000
vt 0.842105 0.000000
vt 0.842105 0.593750
vt 0.842105 0.718750
vt 0.842105 0.781250
vt 0.842105 0.906250
vt 0.842105 1.000000
vt 0.894737 1.000000
vt 0.894737 0.906250
vt 0.894737 0.781250
vt 0.894737 0.718750
vt 0.947368 0.500000
vt 1.000000 0.500000
vt 1.000000 0.000000
vt 0.947368 0.000000
vt 0.078947 0.562500
vt 0.184211 0.562500
vt 0.236842 0.562500
vt 0.342105 0.562500
vt 0.210526 0.718750
vt 0.210526 0.593750
vt 0.368421 0.593750
vt 0.368421 0.718750
vt 0.052632 0.718750
vt 0.052632 0.593750
vt 0.210526 0.593750
vt 0.210526 0.718750
vt 0.078947 0.750000
vt 0.184211 0.750000
vt 0.236842 0.750000
vt 0.342105 0.750000
vt 0.078947 0.750000
vt 0.184211 0.750000
vt 0.236842 0.750000
vt 0.342105 0.750000
vt 0.210526 0.906250
vt 0.210526 0.781250
vt 0.368421 0.781250
vt 0.368421 0.906250
vt 0.236842 0.937500
vt 0.342105 0.937500
vt 0.052632 0.906250
vt 0.052632 0.781250
vt 0.210526 0.781250
vt 0.210526 0.906250
vt 0.078947 0.937500
vt 0.184211 0.937500
vt 0.842105 0.000000
vt 0.421053 0.000000
vt 0.421053 0.593750
vt 0.500000 0.593750
vn 0.0000 -1.0000 0.0000
vn 0.0000 0.0000 1.0000
vn 0.0000 0.0000 -1.0000
vn -1.0000 0.0000 0.0000
vn 1.0000 -0.0000 0.0000
vn 0.0000 1.0000 0.0000
usemtl None.003
s 1
f 1/1/1 2/2/1 3/3/1 4/4/1
f 5/5/2 6/6/2 7/7/2 8/8/2
f 9/9/3 4/10/3 3/11/3 10/12/3 11/13/3 12/14/3 13/15/3 14/16/3
f 15/17/2 16/18/2 17/19/2 18/20/2
f 19/21/2 20/22/2 21/23/2 22/24/2
f 23/25/2 24/26/2 25/27/2 26/28/2
f 27/29/2 28/30/2 16/18/2 15/17/2 24/26/2 23/25/2 6/6/2 5/5/2
f 29/31/2 30/32/2 31/33/2 32/34/2
f 17/19/2 20/22/2 19/21/2 30/32/2 29/31/2 33/35/2 34/36/2 8/8/2 7/7/2 26/28/2 25/27/2 18/20/2
f 35/37/3 36/38/3 9/9/3 14/16/3
f 37/39/3 38/40/3 13/15/3 12/14/3
f 3/41/4 2/42/4 21/43/4 20/44/4 17/45/4 16/46/4 28/47/4 39/48/4 40/49/4 41/50/4 42/51/4 10/52/4
f 42/53/3 43/54/3 11/13/3 10/12/3
f 44/55/3 45/56/3 46/57/3 47/58/3
f 48/59/3 49/60/3 50/61/3 51/62/3
f 39/63/3 52/64/3 45/56/3 44/55/3 49/60/3 48/59/3 53/65/3 40/66/3
f 53/65/3 54/67/3 41/68/3 40/66/3
f 46/57/3 36/38/3 35/37/3 38/40/3 37/39/3 43/54/3 42/53/3 41/68/3 54/67/3 51/62/3 50/61/3 47/58/3
f 55/69/5 1/70/5 4/71/5 9/72/5 36/73/5 46/74/5 45/75/5 52/76/5 27/77/5 5/78/5 8/79/5 34/80/5
f 27/81/6 52/82/6 39/83/6 28/84/6
f 22/85/6 31/86/6 12/14/6 11/13/6
f 32/87/6 56/88/6 14/16/6 13/15/6
f 38/40/5 29/89/5 32/90/5 13/15/5
f 14/16/4 56/91/4 33/92/4 35/37/4
f 43/54/5 19/93/5 22/94/5 11/13/5
f 12/14/4 31/95/4 30/96/4 37/39/4
f 19/97/1 43/54/1 37/39/1 30/98/1
f 29/99/1 38/40/1 35/37/1 33/100/1
f 18/101/6 25/102/6 51/62/6 54/67/6
f 26/103/6 7/104/6 47/58/6 50/61/6
f 49/60/5 23/105/5 26/106/5 50/61/5
f 47/58/4 7/107/4 6/108/4 44/55/4
f 23/109/1 49/60/1 44/55/1 6/110/1
f 53/65/5 15/111/5 18/112/5 54/67/5
f 51/62/4 25/113/4 24/114/4 48/59/4
f 15/115/1 53/65/1 48/59/1 24/116/1
f 2/117/2 1/118/2 55/119/2 56/120/2 32/34/2 31/33/2 22/24/2 21/23/2
f 33/35/2 56/120/2 55/119/2 34/36/2
